STARTFONT 2.1
FONT -Bitstream-Dutch 801-Medium-R-Normal--11-80-100-100-P-85-DEC-DECmath_Symbol
SIZE 8 100 100
FONTBOUNDINGBOX 14 20 -2 -11

STARTPROPERTIES 26
FONTNAME_REGISTRY ""
FAMILY_NAME "Dutch 801"
FOUNDRY "Bitstream"
WEIGHT_NAME "Medium"
SETWIDTH_NAME "Normal"
SLANT "R"
ADD_STYLE_NAME ""
PIXEL_SIZE 11
POINT_SIZE 80
RESOLUTION_X 100
RESOLUTION_Y 100
SPACING "P"
AVERAGE_WIDTH 85
CHARSET_REGISTRY "DEC"
CHARSET_ENCODING "DECmath_Symbol"
CAP_HEIGHT 8
X_HEIGHT 0
CHARSET_COLLECTIONS "DEC-DECmath_Symbol"
FULL_NAME "Dutch 801 Roman DECmath_Symbol"
COPYRIGHT "Copyright 1989 by Bitstream, Inc. and Digital Equipment Corp. All rights reserved."
NOTICE "Dutch 801 is a registered trademark of Bitstream, Inc."
WEIGHT 10
QUAD_WIDTH 7
DEFAULT_CHAR 32
FONT_DESCENT 11
FONT_ASCENT 9
ENDPROPERTIES

CHARS 128

STARTCHAR arrowleft
ENCODING 32
SWIDTH 1000 0
DWIDTH 11 0
BBX 10 5 1 0
BITMAP
2000
4000
FFC0
4000
2000
ENDCHAR

STARTCHAR arrowright
ENCODING 33
SWIDTH 1000 0
DWIDTH 11 0
BBX 10 5 1 0
BITMAP
0100
0080
FFC0
0080
0100
ENDCHAR

STARTCHAR arrowup
ENCODING 34
SWIDTH 500 0
DWIDTH 6 0
BBX 5 11 1 -3
BITMAP
20
70
A8
20
20
20
20
20
20
20
20
ENDCHAR

STARTCHAR arrowdown
ENCODING 35
SWIDTH 500 0
DWIDTH 6 0
BBX 5 11 1 -3
BITMAP
20
20
20
20
20
20
20
20
A8
70
20
ENDCHAR

STARTCHAR arrowboth
ENCODING 36
SWIDTH 1000 0
DWIDTH 11 0
BBX 10 5 1 0
BITMAP
2100
4080
FFC0
4080
2100
ENDCHAR

STARTCHAR arrownortheast
ENCODING 37
SWIDTH 1000 0
DWIDTH 11 0
BBX 10 10 1 -2
BITMAP
03C0
00C0
0140
0240
0400
0800
1000
2000
4000
8000
ENDCHAR

STARTCHAR arrowsoutheast
ENCODING 38
SWIDTH 1000 0
DWIDTH 11 0
BBX 10 10 1 -2
BITMAP
8000
4000
2000
1000
0800
0400
0240
0140
00C0
03C0
ENDCHAR

STARTCHAR similarequal
ENCODING 39
SWIDTH 1000 0
DWIDTH 11 0
BBX 7 4 2 1
BITMAP
72
8C
00
FE
ENDCHAR

STARTCHAR arrowdblleft
ENCODING 40
SWIDTH 1000 0
DWIDTH 11 0
BBX 10 5 1 0
BITMAP
2000
7FC0
8000
7FC0
2000
ENDCHAR

STARTCHAR arrowdblright
ENCODING 41
SWIDTH 1000 0
DWIDTH 11 0
BBX 10 5 1 0
BITMAP
0100
FF80
0040
FF80
0100
ENDCHAR

STARTCHAR arrowdblup
ENCODING 42
SWIDTH 500 0
DWIDTH 6 0
BBX 5 11 1 -3
BITMAP
20
50
D8
50
50
50
50
50
50
50
50
ENDCHAR

STARTCHAR arrowdbldown
ENCODING 43
SWIDTH 500 0
DWIDTH 6 0
BBX 5 11 1 -3
BITMAP
50
50
50
50
50
50
50
50
D8
50
20
ENDCHAR

STARTCHAR arrowdblboth
ENCODING 44
SWIDTH 1000 0
DWIDTH 11 0
BBX 10 5 1 0
BITMAP
2100
7F80
8040
7F80
2100
ENDCHAR

STARTCHAR arrownorthwest
ENCODING 45
SWIDTH 1000 0
DWIDTH 11 0
BBX 10 10 1 -2
BITMAP
F000
C000
A000
9000
0800
0400
0200
0100
0080
0040
ENDCHAR

STARTCHAR arrowsouthwest
ENCODING 46
SWIDTH 1000 0
DWIDTH 11 0
BBX 10 10 1 -2
BITMAP
0040
0080
0100
0200
0400
0800
9000
A000
C000
F000
ENDCHAR

STARTCHAR proportional
ENCODING 47
SWIDTH 1000 0
DWIDTH 11 0
BBX 6 4 3 1
BITMAP
6C
90
90
6C
ENDCHAR

STARTCHAR prime
ENCODING 48
SWIDTH 278 0
DWIDTH 3 0
BBX 3 4 1 2
BITMAP
20
40
40
80
ENDCHAR

STARTCHAR infinity
ENCODING 49
SWIDTH 833 0
DWIDTH 9 0
BBX 7 4 1 1
BITMAP
6C
92
92
6C
ENDCHAR

STARTCHAR element
ENCODING 50
SWIDTH 1000 0
DWIDTH 11 0
BBX 7 7 2 0
BITMAP
3E
40
80
FE
80
40
3E
ENDCHAR

STARTCHAR suchthat
ENCODING 51
SWIDTH 1000 0
DWIDTH 11 0
BBX 7 7 2 0
BITMAP
F8
04
02
FE
02
04
F8
ENDCHAR

STARTCHAR trianglelgup
ENCODING 52
SWIDTH 1000 0
DWIDTH 11 0
BBX 9 9 1 -1
BITMAP
0800
1400
1400
2200
2200
4100
4100
8080
FF80
ENDCHAR

STARTCHAR trianglelgdown
ENCODING 53
SWIDTH 1000 0
DWIDTH 11 0
BBX 9 9 1 -2
BITMAP
FF80
8080
4100
4100
2200
2200
1400
1400
0800
ENDCHAR

STARTCHAR slashnegate
ENCODING 54
SWIDTH 0 0
DWIDTH 6 0
BBX 5 11 1 -3
BITMAP
08
08
10
10
20
20
20
40
40
80
80
ENDCHAR

STARTCHAR mapsto
ENCODING 55
SWIDTH 0 0
DWIDTH 1 0
BBX 2 5 0 0
BITMAP
80
80
C0
80
80
ENDCHAR

STARTCHAR universal
ENCODING 56
SWIDTH 637 0
DWIDTH 7 0
BBX 7 8 0 0
BITMAP
82
82
7C
44
44
28
28
10
ENDCHAR

STARTCHAR existential
ENCODING 57
SWIDTH 639 0
DWIDTH 7 0
BBX 6 8 1 0
BITMAP
FC
04
04
FC
04
04
04
FC
ENDCHAR

STARTCHAR logicalnot
ENCODING 58
SWIDTH 833 0
DWIDTH 9 0
BBX 7 3 1 2
BITMAP
FE
02
02
ENDCHAR

STARTCHAR emptyset
ENCODING 59
SWIDTH 500 0
DWIDTH 6 0
BBX 6 10 0 -1
BITMAP
04
34
48
94
94
A4
A4
48
B0
80
ENDCHAR

STARTCHAR Rfraktur
ENCODING 60
SWIDTH 794 0
DWIDTH 8 0
BBX 8 8 0 0
BITMAP
4C
B2
91
53
9C
12
52
23
ENDCHAR

STARTCHAR Ifraktur
ENCODING 61
SWIDTH 699 0
DWIDTH 8 0
BBX 7 9 0 -1
BITMAP
20
52
4C
28
08
04
44
A4
18
ENDCHAR

STARTCHAR latticetop
ENCODING 62
SWIDTH 778 0
DWIDTH 9 0
BBX 7 7 1 0
BITMAP
FE
10
10
10
10
10
10
ENDCHAR

STARTCHAR latticebot
ENCODING 63
SWIDTH 778 0
DWIDTH 9 0
BBX 7 7 1 0
BITMAP
10
10
10
10
10
10
FE
ENDCHAR

STARTCHAR aleph
ENCODING 64
SWIDTH 602 0
DWIDTH 7 0
BBX 6 8 1 0
BITMAP
88
CC
48
70
B0
98
CC
84
ENDCHAR

STARTCHAR Acursive
ENCODING 65
SWIDTH 630 0
DWIDTH 7 0
BBX 8 9 -2 -1
BITMAP
01
02
06
0A
0A
1F
52
A3
C0
ENDCHAR

STARTCHAR Bcursive
ENCODING 66
SWIDTH 613 0
DWIDTH 7 0
BBX 6 8 0 0
BITMAP
2C
74
24
58
44
44
A4
98
ENDCHAR

STARTCHAR Ccursive
ENCODING 67
SWIDTH 546 0
DWIDTH 6 0
BBX 7 8 0 0
BITMAP
0C
12
24
48
80
84
88
70
ENDCHAR

STARTCHAR Dcursive
ENCODING 68
SWIDTH 722 0
DWIDTH 8 0
BBX 8 8 0 0
BITMAP
3C
52
91
A1
21
42
C4
B8
ENDCHAR

STARTCHAR Ecursive
ENCODING 69
SWIDTH 535 0
DWIDTH 6 0
BBX 6 8 0 0
BITMAP
18
24
20
38
40
80
88
70
ENDCHAR

STARTCHAR Fcursive
ENCODING 70
SWIDTH 558 0
DWIDTH 6 0
BBX 7 8 0 0
BITMAP
3A
44
08
08
70
10
A0
C0
ENDCHAR

STARTCHAR Gcursive
ENCODING 71
SWIDTH 595 0
DWIDTH 7 0
BBX 7 10 0 -2
BITMAP
0C
12
22
40
9C
84
88
70
10
60
ENDCHAR

STARTCHAR Hcursive
ENCODING 72
SWIDTH 722 0
DWIDTH 8 0
BBX 9 8 -2 0
BITMAP
0880
1880
0900
0900
1F80
1200
2280
C300
ENDCHAR

STARTCHAR Icursive
ENCODING 73
SWIDTH 431 0
DWIDTH 5 0
BBX 5 8 0 0
BITMAP
18
28
08
10
10
A0
A0
40
ENDCHAR

STARTCHAR Jcursive
ENCODING 74
SWIDTH 475 0
DWIDTH 5 0
BBX 6 9 -1 -1
BITMAP
1C
24
24
08
08
50
90
A0
C0
ENDCHAR

STARTCHAR Kcursive
ENCODING 75
SWIDTH 676 0
DWIDTH 7 0
BBX 8 8 0 0
BITMAP
71
12
24
28
30
58
4A
84
ENDCHAR

STARTCHAR Lcursive
ENCODING 76
SWIDTH 602 0
DWIDTH 7 0
BBX 8 9 -1 -1
BITMAP
06
09
12
10
10
20
60
92
0C
ENDCHAR

STARTCHAR Mcursive
ENCODING 77
SWIDTH 896 0
DWIDTH 10 0
BBX 12 9 -2 -1
BITMAP
0610
0210
0620
0660
0AA0
0B20
5220
A230
C000
ENDCHAR

STARTCHAR Ncursive
ENCODING 78
SWIDTH 722 0
DWIDTH 8 0
BBX 10 9 -2 -1
BITMAP
1CC0
2440
0C40
0A40
1280
1280
2300
A200
C000
ENDCHAR

STARTCHAR Ocursive
ENCODING 79
SWIDTH 671 0
DWIDTH 7 0
BBX 7 8 0 0
BITMAP
0C
0A
22
42
84
84
88
70
ENDCHAR

STARTCHAR Pcursive
ENCODING 80
SWIDTH 593 0
DWIDTH 7 0
BBX 7 8 0 0
BITMAP
36
1A
12
24
38
40
40
C0
ENDCHAR

STARTCHAR Qcursive
ENCODING 81
SWIDTH 676 0
DWIDTH 7 0
BBX 7 9 0 -1
BITMAP
3C
42
82
82
84
48
10
E4
38
ENDCHAR

STARTCHAR Rcursive
ENCODING 82
SWIDTH 662 0
DWIDTH 7 0
BBX 8 8 -1 0
BITMAP
36
19
12
24
38
48
4A
8C
ENDCHAR

STARTCHAR Scursive
ENCODING 83
SWIDTH 523 0
DWIDTH 6 0
BBX 6 8 0 0
BITMAP
38
44
40
60
18
08
88
70
ENDCHAR

STARTCHAR Tcursive
ENCODING 84
SWIDTH 650 0
DWIDTH 7 0
BBX 7 8 0 0
BITMAP
66
98
20
20
40
48
48
70
ENDCHAR

STARTCHAR Ucursive
ENCODING 85
SWIDTH 699 0
DWIDTH 8 0
BBX 8 8 0 0
BITMAP
23
62
24
44
48
98
AA
CC
ENDCHAR

STARTCHAR Vcursive
ENCODING 86
SWIDTH 569 0
DWIDTH 6 0
BBX 6 8 1 0
BITMAP
44
C4
48
48
50
90
A0
C0
ENDCHAR

STARTCHAR Wcursive
ENCODING 87
SWIDTH 792 0
DWIDTH 9 0
BBX 9 8 1 0
BITMAP
4480
C480
4900
4900
5200
9200
B400
D800
ENDCHAR

STARTCHAR Xcursive
ENCODING 88
SWIDTH 722 0
DWIDTH 8 0
BBX 8 8 -1 0
BITMAP
11
29
0A
0C
08
98
AA
C4
ENDCHAR

STARTCHAR Ycursive
ENCODING 89
SWIDTH 625 0
DWIDTH 7 0
BBX 7 11 0 -3
BITMAP
22
62
24
24
48
48
50
70
20
A0
40
ENDCHAR

STARTCHAR Zcursive
ENCODING 90
SWIDTH 588 0
DWIDTH 7 0
BBX 8 9 -1 -1
BITMAP
1F
22
04
08
10
20
60
92
0C
ENDCHAR

STARTCHAR union
ENCODING 91
SWIDTH 1000 0
DWIDTH 11 0
BBX 7 7 2 0
BITMAP
82
82
82
82
82
44
38
ENDCHAR

STARTCHAR intersection
ENCODING 92
SWIDTH 1000 0
DWIDTH 11 0
BBX 7 7 2 0
BITMAP
38
44
82
82
82
82
82
ENDCHAR

STARTCHAR unionmultiset
ENCODING 93
SWIDTH 1000 0
DWIDTH 11 0
BBX 7 7 2 0
BITMAP
82
82
92
BA
92
44
38
ENDCHAR

STARTCHAR logicaland
ENCODING 94
SWIDTH 1000 0
DWIDTH 11 0
BBX 7 8 2 -1
BITMAP
10
10
28
28
44
44
82
82
ENDCHAR

STARTCHAR logicalor
ENCODING 95
SWIDTH 1000 0
DWIDTH 11 0
BBX 7 8 2 -1
BITMAP
82
82
44
44
28
28
10
10
ENDCHAR

STARTCHAR turnstileleft
ENCODING 96
SWIDTH 611 0
DWIDTH 7 0
BBX 6 7 1 0
BITMAP
80
80
80
FC
80
80
80
ENDCHAR

STARTCHAR turnstileright
ENCODING 97
SWIDTH 611 0
DWIDTH 7 0
BBX 6 7 1 0
BITMAP
04
04
04
FC
04
04
04
ENDCHAR

STARTCHAR bracketleftbt
ENCODING 98
SWIDTH 528 0
DWIDTH 6 0
BBX 3 11 2 -3
BITMAP
80
80
80
80
80
80
80
80
80
80
E0
ENDCHAR

STARTCHAR bracketrightbt
ENCODING 99
SWIDTH 528 0
DWIDTH 6 0
BBX 3 11 1 -3
BITMAP
20
20
20
20
20
20
20
20
20
20
E0
ENDCHAR

STARTCHAR bracketlefttp
ENCODING 100
SWIDTH 528 0
DWIDTH 6 0
BBX 3 11 2 -3
BITMAP
E0
80
80
80
80
80
80
80
80
80
80
ENDCHAR

STARTCHAR bracketrighttp
ENCODING 101
SWIDTH 528 0
DWIDTH 6 0
BBX 3 11 1 -3
BITMAP
E0
20
20
20
20
20
20
20
20
20
20
ENDCHAR

STARTCHAR braceleft
ENCODING 102
SWIDTH 500 0
DWIDTH 6 0
BBX 4 11 1 -3
BITMAP
10
20
20
20
60
80
60
20
20
20
10
ENDCHAR

STARTCHAR braceright
ENCODING 103
SWIDTH 500 0
DWIDTH 6 0
BBX 4 11 1 -3
BITMAP
80
40
40
40
60
10
60
40
40
40
80
ENDCHAR

STARTCHAR angleleft
ENCODING 104
SWIDTH 333 0
DWIDTH 4 0
BBX 3 12 1 -3
BITMAP
20
20
40
40
80
80
80
80
40
40
20
20
ENDCHAR

STARTCHAR angleright
ENCODING 105
SWIDTH 333 0
DWIDTH 4 0
BBX 3 12 1 -3
BITMAP
80
80
40
40
20
20
20
20
40
40
80
80
ENDCHAR

STARTCHAR bar
ENCODING 106
SWIDTH 602 0
DWIDTH 7 0
BBX 1 11 3 -3
BITMAP
80
80
80
80
80
80
80
80
80
80
80
ENDCHAR

STARTCHAR bardbl
ENCODING 107
SWIDTH 1000 0
DWIDTH 11 0
BBX 3 11 4 -3
BITMAP
A0
A0
A0
A0
A0
A0
A0
A0
A0
A0
A0
ENDCHAR

STARTCHAR arrowupdown
ENCODING 108
SWIDTH 500 0
DWIDTH 6 0
BBX 5 11 1 -3
BITMAP
20
70
A8
20
20
20
20
20
A8
70
20
ENDCHAR

STARTCHAR arrowdblupdown
ENCODING 109
SWIDTH 500 0
DWIDTH 6 0
BBX 5 11 1 -3
BITMAP
20
50
D8
50
50
50
50
50
D8
50
20
ENDCHAR

STARTCHAR backslash
ENCODING 110
SWIDTH 500 0
DWIDTH 6 0
BBX 5 11 1 -3
BITMAP
80
80
40
40
20
20
20
10
10
08
08
ENDCHAR

STARTCHAR wreathproduct
ENCODING 111
SWIDTH 278 0
DWIDTH 3 0
BBX 3 7 0 -1
BITMAP
C0
20
20
40
80
80
60
ENDCHAR

STARTCHAR radical
ENCODING 112
SWIDTH 1000 0
DWIDTH 11 0
BBX 10 11 1 -11
BITMAP
0040
0040
0080
0080
0100
4100
A200
2200
1400
1400
0800
ENDCHAR

STARTCHAR coproduct
ENCODING 113
SWIDTH 768 0
DWIDTH 8 0
BBX 8 7 0 0
BITMAP
E7
42
42
42
42
42
FF
ENDCHAR

STARTCHAR gradient
ENCODING 114
SWIDTH 713 0
DWIDTH 8 0
BBX 8 8 0 -1
BITMAP
FF
42
42
24
24
18
18
10
ENDCHAR

STARTCHAR integral
ENCODING 115
SWIDTH 274 0
DWIDTH 3 0
BBX 5 10 -1 -2
BITMAP
18
20
20
20
20
20
20
20
20
C0
ENDCHAR

STARTCHAR unionsqr
ENCODING 116
SWIDTH 1000 0
DWIDTH 11 0
BBX 7 7 2 0
BITMAP
82
82
82
82
82
82
FE
ENDCHAR

STARTCHAR intersectsqr
ENCODING 117
SWIDTH 1000 0
DWIDTH 11 0
BBX 7 7 2 0
BITMAP
FE
82
82
82
82
82
82
ENDCHAR

STARTCHAR reflsubsetsq
ENCODING 118
SWIDTH 1000 0
DWIDTH 11 0
BBX 7 9 2 -2
BITMAP
FE
80
80
80
80
80
FE
00
FE
ENDCHAR

STARTCHAR reflsupersetsq
ENCODING 119
SWIDTH 1000 0
DWIDTH 11 0
BBX 7 9 2 -2
BITMAP
FE
02
02
02
02
02
FE
00
FE
ENDCHAR

STARTCHAR section
ENCODING 120
SWIDTH 500 0
DWIDTH 6 0
BBX 5 9 1 -2
BITMAP
70
88
40
B0
88
68
10
88
70
ENDCHAR

STARTCHAR dagger
ENCODING 121
SWIDTH 500 0
DWIDTH 6 0
BBX 5 10 1 -2
BITMAP
20
20
F8
20
20
20
20
20
20
20
ENDCHAR

STARTCHAR daggerdbl
ENCODING 122
SWIDTH 500 0
DWIDTH 6 0
BBX 5 10 1 -2
BITMAP
20
20
F8
20
20
20
20
F8
20
20
ENDCHAR

STARTCHAR paragraph
ENCODING 123
SWIDTH 500 0
DWIDTH 6 0
BBX 6 10 0 -2
BITMAP
7C
E8
E8
68
28
28
28
28
28
28
ENDCHAR

STARTCHAR clubsuit
ENCODING 124
SWIDTH 1150 0
DWIDTH 13 0
BBX 11 10 1 -2
BITMAP
0E00
1F00
1F00
0E00
75C0
FFE0
F5E0
64C0
0400
0E00
ENDCHAR

STARTCHAR diamondsuit
ENCODING 125
SWIDTH 1148 0
DWIDTH 13 0
BBX 9 10 2 -2
BITMAP
0800
1400
2200
4100
8080
8080
4100
2200
1400
0800
ENDCHAR

STARTCHAR heartsuit
ENCODING 126
SWIDTH 1147 0
DWIDTH 13 0
BBX 11 10 1 -2
BITMAP
3180
4A40
8420
8020
8020
4040
2080
1100
0A00
0400
ENDCHAR

STARTCHAR spadesuit
ENCODING 127
SWIDTH 1148 0
DWIDTH 13 0
BBX 9 10 2 -2
BITMAP
0800
1C00
3E00
7F00
FF80
FF80
FF80
6B00
0800
1C00
ENDCHAR

STARTCHAR minus
ENCODING 160
SWIDTH 833 0
DWIDTH 9 0
BBX 7 1 1 3
BITMAP
FE
ENDCHAR

STARTCHAR dotmath
ENCODING 161
SWIDTH 572 0
DWIDTH 6 0
BBX 2 1 2 3
BITMAP
C0
ENDCHAR

STARTCHAR multiply
ENCODING 162
SWIDTH 833 0
DWIDTH 9 0
BBX 6 6 2 0
BITMAP
84
48
30
30
48
84
ENDCHAR

STARTCHAR asteriskmath
ENCODING 163
SWIDTH 1000 0
DWIDTH 11 0
BBX 5 5 3 1
BITMAP
20
A8
70
A8
20
ENDCHAR

STARTCHAR divide
ENCODING 164
SWIDTH 833 0
DWIDTH 9 0
BBX 7 5 1 1
BITMAP
10
00
FE
00
10
ENDCHAR

STARTCHAR diamondop
ENCODING 165
SWIDTH 500 0
DWIDTH 6 0
BBX 5 5 1 0
BITMAP
20
50
88
50
20
ENDCHAR

STARTCHAR plusminus
ENCODING 166
SWIDTH 833 0
DWIDTH 9 0
BBX 7 8 1 -1
BITMAP
10
10
10
FE
10
10
10
FE
ENDCHAR

STARTCHAR minusplus
ENCODING 167
SWIDTH 833 0
DWIDTH 9 0
BBX 7 8 1 -1
BITMAP
FE
10
10
10
FE
10
10
10
ENDCHAR

STARTCHAR circleplus
ENCODING 168
SWIDTH 1000 0
DWIDTH 11 0
BBX 9 9 1 -1
BITMAP
3E00
4900
8880
8880
FF80
8880
8880
4900
3E00
ENDCHAR

STARTCHAR circleminus
ENCODING 169
SWIDTH 1000 0
DWIDTH 11 0
BBX 9 9 1 -1
BITMAP
3E00
4100
8080
8080
FF80
8080
8080
4100
3E00
ENDCHAR

STARTCHAR circlemultiply
ENCODING 170
SWIDTH 1000 0
DWIDTH 11 0
BBX 9 9 1 -1
BITMAP
3E00
4100
A280
9480
8880
9480
A280
4100
3E00
ENDCHAR

STARTCHAR circledivide
ENCODING 171
SWIDTH 1000 0
DWIDTH 11 0
BBX 9 9 1 -1
BITMAP
3E00
4100
8280
8480
8880
9080
A080
4100
3E00
ENDCHAR

STARTCHAR circledot
ENCODING 172
SWIDTH 1000 0
DWIDTH 11 0
BBX 9 9 1 -1
BITMAP
3E00
4100
8080
8080
8880
8080
8080
4100
3E00
ENDCHAR

STARTCHAR overlaycircle
ENCODING 173
SWIDTH 1000 0
DWIDTH 11 0
BBX 11 11 0 -3
BITMAP
0E00
3180
4040
4040
8020
8020
8020
4040
4040
3180
0E00
ENDCHAR

STARTCHAR circleop
ENCODING 174
SWIDTH 500 0
DWIDTH 6 0
BBX 4 4 1 0
BITMAP
60
90
90
60
ENDCHAR

STARTCHAR bullet
ENCODING 175
SWIDTH 500 0
DWIDTH 6 0
BBX 4 4 1 0
BITMAP
60
F0
F0
60
ENDCHAR

STARTCHAR hardyequiv
ENCODING 176
SWIDTH 1000 0
DWIDTH 11 0
BBX 6 5 3 0
BITMAP
84
78
00
78
84
ENDCHAR

STARTCHAR equivalence
ENCODING 177
SWIDTH 1000 0
DWIDTH 11 0
BBX 7 5 2 1
BITMAP
FE
00
FE
00
FE
ENDCHAR

STARTCHAR reflexsubset
ENCODING 178
SWIDTH 1000 0
DWIDTH 11 0
BBX 7 9 2 -2
BITMAP
3E
40
80
80
80
40
3E
00
FE
ENDCHAR

STARTCHAR reflexsuperset
ENCODING 179
SWIDTH 1000 0
DWIDTH 11 0
BBX 7 9 2 -2
BITMAP
F8
04
02
02
02
04
F8
00
FE
ENDCHAR

STARTCHAR lessequal
ENCODING 180
SWIDTH 1000 0
DWIDTH 11 0
BBX 7 7 2 -1
BITMAP
06
38
C0
38
06
00
FE
ENDCHAR

STARTCHAR greaterequal
ENCODING 181
SWIDTH 1000 0
DWIDTH 11 0
BBX 7 7 2 -1
BITMAP
C0
38
06
38
C0
00
FE
ENDCHAR

STARTCHAR precedesequal
ENCODING 182
SWIDTH 1000 0
DWIDTH 11 0
BBX 6 7 3 0
BITMAP
04
18
E0
18
04
00
FC
ENDCHAR

STARTCHAR followsequal
ENCODING 183
SWIDTH 1000 0
DWIDTH 11 0
BBX 6 7 3 0
BITMAP
80
60
1C
60
80
00
FC
ENDCHAR

STARTCHAR similar
ENCODING 184
SWIDTH 1000 0
DWIDTH 11 0
BBX 7 2 2 2
BITMAP
72
8C
ENDCHAR

STARTCHAR approxequal
ENCODING 185
SWIDTH 1000 0
DWIDTH 11 0
BBX 7 5 2 0
BITMAP
72
8C
00
72
8C
ENDCHAR

STARTCHAR propersubset
ENCODING 186
SWIDTH 1000 0
DWIDTH 11 0
BBX 7 7 2 0
BITMAP
3E
40
80
80
80
40
3E
ENDCHAR

STARTCHAR propersuperset
ENCODING 187
SWIDTH 1000 0
DWIDTH 11 0
BBX 7 7 2 0
BITMAP
F8
04
02
02
02
04
F8
ENDCHAR

STARTCHAR muchless
ENCODING 188
SWIDTH 1000 0
DWIDTH 11 0
BBX 10 7 1 -1
BITMAP
0440
1980
2200
CC00
2200
1980
0440
ENDCHAR

STARTCHAR muchgreater
ENCODING 189
SWIDTH 1000 0
DWIDTH 11 0
BBX 10 7 1 -1
BITMAP
8800
6600
1100
0CC0
1100
6600
8800
ENDCHAR

STARTCHAR precedes
ENCODING 190
SWIDTH 1000 0
DWIDTH 11 0
BBX 7 5 2 1
BITMAP
02
0C
F0
0C
02
ENDCHAR

STARTCHAR follows
ENCODING 191
SWIDTH 1000 0
DWIDTH 11 0
BBX 7 5 2 1
BITMAP
80
60
1E
60
80
ENDCHAR
ENDFONT
